<svg xmlns="http://www.w3.org/2000/svg" width="558.99636" height="137.40607" viewBox="0 0 558.99636 137.40607"><title>logo-web-solutions</title><polyline points="76.259 97.158 0 20.509 46.524 137.406 76.289 96.918" style="fill:#f0b41d"/><polyline points="57.438 71.224 79.283 42.422 79.029 42.422 98.548 66.806 152.578 0 122.557 137.365 57.447 70.957" style="fill:#64ad45"/><path d="M217.5332,126.63086,221.061,115.6084a1.52791,1.52791,0,0,1,.34668-.52832.954.954,0,0,1,.72461-.26367h1.03906a.71237.71237,0,0,1,.53564.23145.78276.78276,0,0,1,.2207.56055,1.13986,1.13986,0,0,1-.03174.26465l-4.81934,15.17969a2.1211,2.1211,0,0,1-.33105.66016.72986.72986,0,0,1-.61426.26367h-.97607a.7113.7113,0,0,1-.61426-.28027,3.2643,3.2643,0,0,1-.3623-.64355l-3.74854-10.95605-3.74854,10.95605a3.36609,3.36609,0,0,1-.3623.64355.71308.71308,0,0,1-.61426.28027h-.97656a.72924.72924,0,0,1-.61426-.26367,2.09976,2.09976,0,0,1-.33057-.66016L200.96387,115.873a1.13913,1.13913,0,0,1-.03125-.26465.78073.78073,0,0,1,.2207-.56055.71058.71058,0,0,1,.53516-.23145H202.728a.95622.95622,0,0,1,.72461.26367,1.535,1.535,0,0,1,.34668.52832l3.52783,11.02246,3.77979-11.02246a1.93827,1.93827,0,0,1,.29932-.52832.80517.80517,0,0,1,.67725-.26367h.69287a.80517.80517,0,0,1,.67725.26367,1.93827,1.93827,0,0,1,.29932.52832Z" transform="translate(-3.42259 -2.59393)" style="fill:#969696"/><path d="M238.79492,121.74609a9.03553,9.03553,0,0,1,.69287-2.83789,8.09487,8.09487,0,0,1,1.48047-2.30957,6.49917,6.49917,0,0,1,2.18945-1.55078,7.00683,7.00683,0,0,1,2.85059-.56152,7.61267,7.61267,0,0,1,3.04.57813,6.27684,6.27684,0,0,1,2.28369,1.666,7.52673,7.52673,0,0,1,1.44873,2.63965,11.18638,11.18638,0,0,1,.50439,3.46582v.89063a.87848.87848,0,0,1-.252.627.79777.79777,0,0,1-.59863.26367H241.59863v.19824a4.77112,4.77112,0,0,0,1.30713,3.44824,4.28024,4.28024,0,0,0,3.10254,1.20508,5.21806,5.21806,0,0,0,2.59912-.51172,5.49167,5.49167,0,0,0,1.40137-1.13867,1.86332,1.86332,0,0,1,.44141-.36328,1.27157,1.27157,0,0,1,.56689-.09863h.94482a.904.904,0,0,1,.62988.26367.66112.66112,0,0,1,.2207.62793,3.5983,3.5983,0,0,1-.53564,1.30273,4.82251,4.82251,0,0,1-1.27539,1.32031,7.52649,7.52649,0,0,1-2.0791,1.02344,9.29838,9.29838,0,0,1-2.91406.41211,6.62372,6.62372,0,0,1-5.02393-2.16113,7.948,7.948,0,0,1-1.49658-2.376,9.7274,9.7274,0,0,1-.69287-2.9873A14.60642,14.60642,0,0,1,238.79492,121.74609Zm2.80371.09961h8.85156v-.09961a4.33329,4.33329,0,0,0-1.21289-3.2168,4.38312,4.38312,0,0,0-3.229-1.20508,4.57145,4.57145,0,0,0-1.70068.31348,4.2436,4.2436,0,0,0-1.38623.8916,4.15862,4.15862,0,0,0-.94482,1.40234,5.04389,5.04389,0,0,0-.37793,1.81445Z" transform="translate(-3.42259 -2.59393)" style="fill:#969696"/><path d="M274.957,131.97656a.77434.77434,0,0,1-.62988-.26367,2.23149,2.23149,0,0,1-.34668-.56152l-6.26855-15.31152a.76949.76949,0,0,1-.03125-.23145.78234.78234,0,0,1,.22021-.56055.71237.71237,0,0,1,.53564-.23145h1.16553a.90409.90409,0,0,1,.709.26367,1.64,1.64,0,0,1,.33057.52832l4.88232,11.97949,4.88184-11.97949a1.7752,1.7752,0,0,1,.31641-.52832.73691.73691,0,0,1,.59766-.26367h1.2915a.71625.71625,0,0,1,.53711.23145.78312.78312,0,0,1,.21875.56055.75428.75428,0,0,1-.03125.23145l-6.26807,15.31152a2.574,2.574,0,0,1-.33008.56152.73367.73367,0,0,1-.61523.26367Z" transform="translate(-3.42259 -2.59393)" style="fill:#969696"/><path d="M307.5918,114.81641a.80281.80281,0,0,1,.59863.26367.88034.88034,0,0,1,.252.62793v1.05566a.87644.87644,0,0,1-.252.627.79929.79929,0,0,1-.59863.26367h-1.82715q-3.62256,0-3.623,3.79492v9.63672a.87644.87644,0,0,1-.252.627.79922.79922,0,0,1-.59766.26367h-1.166a.79976.79976,0,0,1-.59863-.26367.87644.87644,0,0,1-.252-.627V115.708a.88034.88034,0,0,1,.252-.62793.79976.79976,0,0,1,.59863-.26367h1.166a.79922.79922,0,0,1,.59766.26367.88034.88034,0,0,1,.252.62793v1.02246a4.024,4.024,0,0,1,1.5127-1.45215,4.95787,4.95787,0,0,1,2.29883-.46191Z" transform="translate(-3.42259 -2.59393)" style="fill:#969696"/><path d="M326.61621,131.08594a.87644.87644,0,0,1-.252.627.79922.79922,0,0,1-.59766.26367h-1.166a.79976.79976,0,0,1-.59863-.26367.87644.87644,0,0,1-.252-.627V109.4375a.87808.87808,0,0,1,.252-.627.79976.79976,0,0,1,.59863-.26367h1.166a.79922.79922,0,0,1,.59766.26367.87807.87807,0,0,1,.252.627Z" transform="translate(-3.42259 -2.59393)" style="fill:#969696"/><path d="M342.74512,127.65332a4.84068,4.84068,0,0,1,1.88965-3.99316,7.41983,7.41983,0,0,1,2.06348-1.12207,14.85634,14.85634,0,0,1,2.50391-.65918l4.44141-.75977v-.42871a3.03527,3.03527,0,0,0-1.05469-2.52441,4.09166,4.09166,0,0,0-2.63086-.8418,3.48342,3.48342,0,0,0-2.09473.52832,5.39594,5.39594,0,0,0-1.21289,1.25391,1.04981,1.04981,0,0,1-.40918.36328,1.50065,1.50065,0,0,1-.59863.09863h-.94434a.84906.84906,0,0,1-.61426-.26367.74949.74949,0,0,1-.23633-.627,3.28814,3.28814,0,0,1,.55078-1.48535,4.95946,4.95946,0,0,1,1.32324-1.35254,7.60071,7.60071,0,0,1,1.92188-.97363,6.969,6.969,0,0,1,2.31445-.37988,7.833,7.833,0,0,1,2.63086.42969,5.55133,5.55133,0,0,1,3.43359,3.2998,7.51549,7.51549,0,0,1,.48828,2.80469v10.06543a.88052.88052,0,0,1-.252.627.80281.80281,0,0,1-.59863.26367h-1.166a.79976.79976,0,0,1-.59863-.26367.87644.87644,0,0,1-.252-.627v-1.35352a2.98627,2.98627,0,0,1-.88184,1.10547,5.86861,5.86861,0,0,1-1.37012.80859,8.03593,8.03593,0,0,1-1.60645.49512,8.11815,8.11815,0,0,1-1.55957.165,6.695,6.695,0,0,1-2.252-.36328,5.35559,5.35559,0,0,1-1.73242-.97363,4.24815,4.24815,0,0,1-1.10254-1.46777A4.3773,4.3773,0,0,1,342.74512,127.65332Zm5.7959,1.81543a5.74944,5.74944,0,0,0,2.0791-.36328,4.84688,4.84688,0,0,0,1.62207-1.00684,4.34585,4.34585,0,0,0,1.03906-1.53418,5.21557,5.21557,0,0,0,.3623-1.97949v-.8252l-3.7168.627a8.68751,8.68751,0,0,0-3.15039,1.05566,2.16037,2.16037,0,0,0-1.165,1.88086,1.8054,1.8054,0,0,0,.15723.72656,2.15536,2.15536,0,0,0,.50391.69238,2.50245,2.50245,0,0,0,.89844.52832A4.08906,4.08906,0,0,0,348.541,129.46875Z" transform="translate(-3.42259 -2.59393)" style="fill:#969696"/><path d="M381.42676,114.48633a6.9447,6.9447,0,0,1,2.75684.54492,6.54022,6.54022,0,0,1,2.2207,1.55078,7.55564,7.55564,0,0,1,1.51172,2.459,10.41664,10.41664,0,0,1,.66113,3.2666c.02051.33008.03223.6875.03223,1.07227,0,.38574-.01172.74316-.03223,1.07227a10.41713,10.41713,0,0,1-.66113,3.26758,7.75872,7.75872,0,0,1-1.51172,2.47461,6.41357,6.41357,0,0,1-2.2207,1.56738,6.9447,6.9447,0,0,1-2.75684.54492,6.1167,6.1167,0,0,1-3.08691-.67676,5.567,5.567,0,0,1-1.7959-1.56738v1.02344a.87644.87644,0,0,1-.252.627.79922.79922,0,0,1-.59766.26367h-1.166a.79976.79976,0,0,1-.59863-.26367.87644.87644,0,0,1-.252-.627V109.4375a.87808.87808,0,0,1,.252-.627.79976.79976,0,0,1,.59863-.26367h1.166a.79922.79922,0,0,1,.59766.26367.87808.87808,0,0,1,.252.627v7.293a5.69027,5.69027,0,0,1,4.88281-2.24414Zm-4.88281,10.3291a5.22367,5.22367,0,0,0,1.38672,3.39941,4.25609,4.25609,0,0,0,3.18164,1.25391,4.05438,4.05438,0,0,0,3.25977-1.38574,6.28339,6.28339,0,0,0,1.33887-3.7627q.03076-.92285,0-1.84766a6.27794,6.27794,0,0,0-1.33887-3.76172,4.05207,4.05207,0,0,0-3.25977-1.38672,4.16622,4.16622,0,0,0-3.18164,1.27051,5.78407,5.78407,0,0,0-1.38672,3.61426,13.61836,13.61836,0,0,0,0,2.60645Z" transform="translate(-3.42259 -2.59393)" style="fill:#969696"/><path d="M414.40723,127.22461a1.60573,1.60573,0,0,0-.33105-1.03906,2.61392,2.61392,0,0,0-.99219-.71,10.70331,10.70331,0,0,0-1.68457-.56055q-1.02539-.26514-2.37891-.56152a6.03766,6.03766,0,0,1-3.5752-1.86426,4.99145,4.99145,0,0,1-.64551-4.93359,4.54318,4.54318,0,0,1,1.13379-1.584,5.34977,5.34977,0,0,1,1.90625-1.08887,8.25245,8.25245,0,0,1,2.69238-.39648,8.96531,8.96531,0,0,1,2.69336.36328,6.91286,6.91286,0,0,1,1.9375.92383,4.45178,4.45178,0,0,1,1.19727,1.20508,2.56978,2.56978,0,0,1,.44043,1.2373.75165.75165,0,0,1-.23535.627.8523.8523,0,0,1-.61426.26367h-1.04a1.60717,1.60717,0,0,1-.457-.082.98233.98233,0,0,1-.48828-.37988,3.091,3.091,0,0,0-1.21191-.94043,5.30527,5.30527,0,0,0-2.22168-.37988,4.37534,4.37534,0,0,0-2.34668.56152,1.74313,1.74313,0,0,0-.89746,1.55078,1.79419,1.79419,0,0,0,.252,1.00684,2.03951,2.03951,0,0,0,.81934.66016,7.53555,7.53555,0,0,0,1.49609.51074q.92871.23145,2.31543.56152a10.09047,10.09047,0,0,1,2.42578.84082,5.82143,5.82143,0,0,1,1.57422,1.15527,3.78781,3.78781,0,0,1,.85059,1.41895,5.25673,5.25673,0,0,1,.252,1.63379,4.27946,4.27946,0,0,1-.45605,1.91406,4.84044,4.84044,0,0,1-1.30762,1.61719,6.85911,6.85911,0,0,1-2.06348,1.12207,8.2587,8.2587,0,0,1-2.75586.42871,8.69909,8.69909,0,0,1-2.74121-.39648,8.2196,8.2196,0,0,1-2.04687-.97266,4.7909,4.7909,0,0,1-1.30762-1.25488,2.53949,2.53949,0,0,1-.48828-1.27051.77666.77666,0,0,1,.2207-.627.83519.83519,0,0,1,.62988-.26367h1.13379a2.317,2.317,0,0,1,.44141.0498.791.791,0,0,1,.47266.37891,3.27082,3.27082,0,0,0,1.38574,1.12207,5.65273,5.65273,0,0,0,2.2998.39648,5.75391,5.75391,0,0,0,1.37012-.165,4.605,4.605,0,0,0,1.19727-.46191,2.749,2.749,0,0,0,.834-.71A1.46017,1.46017,0,0,0,414.40723,127.22461Z" transform="translate(-3.42259 -2.59393)" style="fill:#969696"/><path d="M436.17285,127.9834a.79725.79725,0,0,1,.59863.26465.87644.87644,0,0,1,.252.627v2.21094a.87644.87644,0,0,1-.252.627.79976.79976,0,0,1-.59863.26367H434.0625a.79976.79976,0,0,1-.59863-.26367.87644.87644,0,0,1-.252-.627V128.875a.87644.87644,0,0,1,.252-.627.79725.79725,0,0,1,.59863-.26465Z" transform="translate(-3.42259 -2.59393)" style="fill:#969696"/><path d="M468.49121,131.08594a.87644.87644,0,0,1-.252.627.79922.79922,0,0,1-.59766.26367h-1.166a.79976.79976,0,0,1-.59863-.26367.87644.87644,0,0,1-.252-.627V122.374a5.4131,5.4131,0,0,0-1.165-3.7959,4.76429,4.76429,0,0,0-6.44238,0,5.27165,5.27165,0,0,0-1.21289,3.7959v8.71191a.87644.87644,0,0,1-.252.627.79922.79922,0,0,1-.59766.26367h-1.166a.79976.79976,0,0,1-.59863-.26367.87644.87644,0,0,1-.252-.627V115.708a.88034.88034,0,0,1,.252-.62793.79976.79976,0,0,1,.59863-.26367h1.166a.79922.79922,0,0,1,.59766.26367.88034.88034,0,0,1,.252.62793v1.02246a5.74887,5.74887,0,0,1,4.88281-2.24414,7.21789,7.21789,0,0,1,2.74023.51172,6.1444,6.1444,0,0,1,2.1582,1.45215,6.56385,6.56385,0,0,1,1.40137,2.32617,9.03321,9.03321,0,0,1,.50391,3.10254Z" transform="translate(-3.42259 -2.59393)" style="fill:#969696"/><path d="M484.87207,121.74609a9.04935,9.04935,0,0,1,.69336-2.83789,8.074,8.074,0,0,1,1.48047-2.30957,6.49435,6.49435,0,0,1,2.18945-1.55078,7.00188,7.00188,0,0,1,2.85059-.56152,7.60782,7.60782,0,0,1,3.03906.57813,6.27449,6.27449,0,0,1,2.28418,1.666,7.54313,7.54313,0,0,1,1.44922,2.63965,11.21584,11.21584,0,0,1,.50391,3.46582v.89063a.87644.87644,0,0,1-.252.627.79929.79929,0,0,1-.59863.26367H487.67578v.19824a4.777,4.777,0,0,0,1.30664,3.44824,4.28412,4.28412,0,0,0,3.10352,1.20508,5.21723,5.21723,0,0,0,2.59863-.51172,5.50016,5.50016,0,0,0,1.40137-1.13867,1.86332,1.86332,0,0,1,.44141-.36328,1.2692,1.2692,0,0,1,.56641-.09863h.94531a.904.904,0,0,1,.62988.26367.66.66,0,0,1,.2207.62793,3.60512,3.60512,0,0,1-.53516,1.30273,4.82707,4.82707,0,0,1-1.27637,1.32031,7.506,7.506,0,0,1-2.0791,1.02344,9.2898,9.2898,0,0,1-2.91309.41211,6.62581,6.62581,0,0,1-5.02441-2.16113,7.9275,7.9275,0,0,1-1.49609-2.376,9.74178,9.74178,0,0,1-.69336-2.9873A14.60643,14.60643,0,0,1,484.87207,121.74609Zm2.80371.09961h8.85156v-.09961a4.3352,4.3352,0,0,0-1.21289-3.2168,4.382,4.382,0,0,0-3.22852-1.20508,4.574,4.574,0,0,0-1.70117.31348,4.23637,4.23637,0,0,0-1.38574.8916,4.14561,4.14561,0,0,0-.94531,1.40234,5.04389,5.04389,0,0,0-.37793,1.81445Z" transform="translate(-3.42259 -2.59393)" style="fill:#969696"/><path d="M519.89941,126.20117a5.847,5.847,0,0,0,.11035,1.17188,2.41752,2.41752,0,0,0,.39355.94043,1.80594,1.80594,0,0,0,.80371.61035,3.53,3.53,0,0,0,1.33887.21484h1.66895a.80128.80128,0,0,1,.59863.26367.87971.87971,0,0,1,.252.627v1.05664a.87644.87644,0,0,1-.252.627.80128.80128,0,0,1-.59863.26367h-1.98437a4.86575,4.86575,0,0,1-3.96875-1.48535,6.5705,6.5705,0,0,1-1.22852-4.29V117.6543h-2.33105a.79627.79627,0,0,1-.59863-.26367.87644.87644,0,0,1-.252-.627V115.708a.88034.88034,0,0,1,.252-.62793.79976.79976,0,0,1,.59863-.26367h2.33105V109.4375a.874.874,0,0,1,.252-.627.79976.79976,0,0,1,.59863-.26367h1.165a.80128.80128,0,0,1,.59863.26367.87807.87807,0,0,1,.252.627v5.37891h4.001a.79922.79922,0,0,1,.59766.26367.88034.88034,0,0,1,.252.62793v1.05566a.87644.87644,0,0,1-.252.627.79572.79572,0,0,1-.59766.26367h-4.001Z" transform="translate(-3.42259 -2.59393)" style="fill:#969696"/><path d="M212.27393,86.418l-3.02734,9.56836a2.49637,2.49637,0,0,1-.43994.78418.99054.99054,0,0,1-.792.30371h-2.85107a1.10455,1.10455,0,0,1-.82715-.30371,1.568,1.568,0,0,1-.40479-.78418l-4.50586-20.19238a1.26075,1.26075,0,0,1-.03516-.25586.79621.79621,0,0,1,.28174-.6084.96287.96287,0,0,1,.66895-.25586h2.60449a1.27313,1.27313,0,0,1,.66895.19238.98355.98355,0,0,1,.42236.67188l2.95654,13.56836,2.605-8.54492a2.123,2.123,0,0,1,.33447-.5752,1.05181,1.05181,0,0,1,.89746-.35254h2.88672a1.05242,1.05242,0,0,1,.89746.35254,2.13621,2.13621,0,0,1,.33447.5752l2.60449,8.54492,2.957-13.56836a.98191.98191,0,0,1,.42236-.67187,1.27187,1.27187,0,0,1,.66895-.19238h2.60449a.96458.96458,0,0,1,.66895.25586.79784.79784,0,0,1,.28174.6084,1.29674,1.29674,0,0,1-.03516.25586l-4.50586,20.19238a1.57187,1.57187,0,0,1-.40479.78418,1.106,1.106,0,0,1-.82715.30371H216.5332a.99054.99054,0,0,1-.792-.30371,2.48682,2.48682,0,0,1-.43994-.78418Z" transform="translate(-3.42259 -2.59393)" style="fill:#64ad45;stroke:#63ad45;stroke-miterlimit:10"/><path d="M249.65576,93.07422a.96424.96424,0,0,1,.66846.25586.79621.79621,0,0,1,.28174.6084V96.21a.79474.79474,0,0,1-.28174.6084.95982.95982,0,0,1-.66846.25586H234.20264a.95813.95813,0,0,1-.66846-.25586.79312.79312,0,0,1-.28174-.6084V75.53809a.79458.79458,0,0,1,.28174-.6084.96253.96253,0,0,1,.66846-.25586H249.374a.96629.96629,0,0,1,.66895.25586.79733.79733,0,0,1,.28125.6084v2.27148a.79586.79586,0,0,1-.28125.6084.96185.96185,0,0,1-.66895.25586H238.00439V83.7627h10.59521a.961.961,0,0,1,.66895.25586.79536.79536,0,0,1,.28125.60742v2.27246a.79389.79389,0,0,1-.28125.60742.96189.96189,0,0,1-.66895.25684H238.00439v5.31152Z" transform="translate(-3.42259 -2.59393)" style="fill:#64ad45;stroke:#63ad45;stroke-miterlimit:10"/><path d="M260.03906,97.07422a.95813.95813,0,0,1-.66846-.25586.79312.79312,0,0,1-.28174-.6084V75.53809a.79458.79458,0,0,1,.28174-.6084.96253.96253,0,0,1,.66846-.25586h10.38428a9.92968,9.92968,0,0,1,3.76709.624,7.10075,7.10075,0,0,1,2.42773,1.56836,5.81537,5.81537,0,0,1,1.32031,2.04785,6.02311,6.02311,0,0,1,.4043,2.06348,4.86552,4.86552,0,0,1-.28125,1.71289,4.95307,4.95307,0,0,1-.68555,1.28027,6.16782,6.16782,0,0,1-.81055.87988,3.68682,3.68682,0,0,1-.65039.47949,7.33776,7.33776,0,0,1,2.00586,1.9043,5.09615,5.09615,0,0,1,.916,3.12012,6.32273,6.32273,0,0,1-.49414,2.416,6.61535,6.61535,0,0,1-1.44336,2.16016,7.15515,7.15515,0,0,1-2.375,1.55176,8.53435,8.53435,0,0,1-3.2915.5918ZM273.59082,81.1377a2.143,2.143,0,0,0-.84424-1.83984,4.5471,4.5471,0,0,0-2.67529-.624h-6.23047v4.92871h6.23047a4.5471,4.5471,0,0,0,2.67529-.624A2.14359,2.14359,0,0,0,273.59082,81.1377Zm-9.75,11.93652H270.353a4.37637,4.37637,0,0,0,2.8335-.752,2.58972,2.58972,0,0,0-.03516-3.95215,4.33234,4.33234,0,0,0-2.79834-.76758h-6.51221Z" transform="translate(-3.42259 -2.59393)" style="fill:#64ad45;stroke:#63ad45;stroke-miterlimit:10"/><path d="M307.94629,74.35352a13.62046,13.62046,0,0,1,4.1543.57617,10.66343,10.66343,0,0,1,2.99121,1.44043,6.43834,6.43834,0,0,1,1.81348,1.9043,4.597,4.597,0,0,1,.68652,1.96777.67955.67955,0,0,1-.26465.624,1.0661,1.0661,0,0,1-.68652.24023h-2.46387a1.57625,1.57625,0,0,1-.89746-.208,2.21629,2.21629,0,0,1-.5459-.56055,4.41365,4.41365,0,0,0-1.60156-1.3916,6.767,6.767,0,0,0-3.18555-.59277,8.35674,8.35674,0,0,0-1.74219.17676,5.31025,5.31025,0,0,0-1.44336.51172,2.87441,2.87441,0,0,0-.96777.81641,1.78708,1.78708,0,0,0-.35156,1.08789,1.99916,1.99916,0,0,0,.334,1.2002,2.59669,2.59669,0,0,0,1.126.7998,12.4174,12.4174,0,0,0,2.09473.624q1.30225.28857,3.23828.67188a24.67817,24.67817,0,0,1,3.64355.97559,8.72154,8.72154,0,0,1,2.499,1.34473,5.0688,5.0688,0,0,1,1.44336,1.80762,5.49668,5.49668,0,0,1,.47461,2.33594,5.29644,5.29644,0,0,1-.70312,2.67188,6.3551,6.3551,0,0,1-2.00684,2.1123,10.601,10.601,0,0,1-3.20312,1.3916,16.36671,16.36671,0,0,1-4.25977.5127,16.0317,16.0317,0,0,1-3.76562-.43262,11.63054,11.63054,0,0,1-3.18555-1.248,7.28166,7.28166,0,0,1-2.23535-1.96777,4.85959,4.85959,0,0,1-.9502-2.55957.67235.67235,0,0,1,.26367-.624,1.06421,1.06421,0,0,1,.68652-.24023h2.46387a1.773,1.773,0,0,1,.915.19238,1.493,1.493,0,0,1,.52832.5752,5.941,5.941,0,0,0,.59863.832,3.15867,3.15867,0,0,0,.9502.73633,6.08949,6.08949,0,0,0,1.49609.52832,10.09607,10.09607,0,0,0,2.23438.208,14.01975,14.01975,0,0,0,2.042-.14453,6.392,6.392,0,0,0,1.72461-.47949,3.673,3.673,0,0,0,1.19727-.832,1.75011,1.75011,0,0,0,.457-1.23242,1.487,1.487,0,0,0-.49219-1.15137,4.07277,4.07277,0,0,0-1.49609-.76855,22.67929,22.67929,0,0,0-2.48145-.6084q-1.47949-.28711-3.415-.73535a19.62449,19.62449,0,0,1-3.08008-.91211,7.36046,7.36046,0,0,1-2.18164-1.2959,4.81531,4.81531,0,0,1-1.28516-1.80859,6.57833,6.57833,0,0,1-.42285-2.47949,5.20482,5.20482,0,0,1,.7041-2.65625A6.52128,6.52128,0,0,1,301.3291,76.21a9.87879,9.87879,0,0,1,2.93945-1.36035A13.14487,13.14487,0,0,1,307.94629,74.35352Z" transform="translate(-3.42259 -2.59393)" style="fill:#64ad45;stroke:#63ad45;stroke-miterlimit:10"/><path d="M325.58105,83.02637a10.43922,10.43922,0,0,1,.75684-3.376,7.66279,7.66279,0,0,1,1.91895-2.752,9.24544,9.24544,0,0,1,3.168-1.85645,13.23947,13.23947,0,0,1,4.50586-.68848,13.41076,13.41076,0,0,1,4.46973.67285,8.9153,8.9153,0,0,1,3.168,1.85547,8.07622,8.07622,0,0,1,1.93652,2.752,10.07831,10.07831,0,0,1,.77441,3.39258q.03369.60791.05273,1.34375.01758.73682.01758,1.52051t-.01758,1.51953q-.019.73682-.05273,1.34375a10.43346,10.43346,0,0,1-.75684,3.376,7.66278,7.66278,0,0,1-1.91895,2.752,9.02974,9.02974,0,0,1-3.18555,1.84082,15.38276,15.38276,0,0,1-8.99316,0,9.05225,9.05225,0,0,1-3.168-1.84082,7.66279,7.66279,0,0,1-1.91895-2.752,10.43346,10.43346,0,0,1-.75684-3.376q-.03516-.60645-.05273-1.34375-.01758-.73535-.01758-1.51953,0-.78369.01758-1.52051Q325.5459,83.63477,325.58105,83.02637Zm15.94629.16016a4.82938,4.82938,0,0,0-1.63672-3.56836,6.83219,6.83219,0,0,0-7.91992,0,4.82314,4.82314,0,0,0-1.6377,3.56836q-.07031,1.21582-.07031,2.7041,0,1.48682.07031,2.70313a4.76989,4.76989,0,0,0,1.6377,3.55273,6.90636,6.90636,0,0,0,7.91992,0,4.776,4.776,0,0,0,1.63672-3.55273q.07031-1.21436.07031-2.70312Q341.59766,84.40234,341.52734,83.18652Z" transform="translate(-3.42259 -2.59393)" style="fill:#64ad45;stroke:#63ad45;stroke-miterlimit:10"/><path d="M371.41113,93.07422a.96458.96458,0,0,1,.66895.25586.79836.79836,0,0,1,.28223.6084V96.21a.79688.79688,0,0,1-.28223.6084.96016.96016,0,0,1-.66895.25586h-15.417a.95847.95847,0,0,1-.66895-.25586.79363.79363,0,0,1-.28223-.6084V75.53809a.7951.7951,0,0,1,.28223-.6084.96287.96287,0,0,1,.66895-.25586h2.85059a.96458.96458,0,0,1,.66895.25586.79836.79836,0,0,1,.28223.6084V93.07422Z" transform="translate(-3.42259 -2.59393)" style="fill:#64ad45;stroke:#63ad45;stroke-miterlimit:10"/><path d="M398.41016,74.67383a.96629.96629,0,0,1,.66895.25586.79733.79733,0,0,1,.28125.6084V88.6582a9.64941,9.64941,0,0,1-.63379,3.584,7.29025,7.29025,0,0,1-1.90039,2.752,8.64033,8.64033,0,0,1-3.168,1.77637,15.889,15.889,0,0,1-8.81836,0,8.66512,8.66512,0,0,1-3.15039-1.77637,7.11875,7.11875,0,0,1-1.88281-2.752,9.89456,9.89456,0,0,1-.61621-3.584V75.53809a.7951.7951,0,0,1,.28223-.6084.9622.9622,0,0,1,.668-.25586h2.85156a.96629.96629,0,0,1,.66895.25586.79733.79733,0,0,1,.28125.6084v12.96a5.79559,5.79559,0,0,0,.3877,2.24023,3.9022,3.9022,0,0,0,1.09082,1.51953,4.38757,4.38757,0,0,0,1.68945.86426,8.04041,8.04041,0,0,0,2.14746.27246,8.23719,8.23719,0,0,0,2.165-.27246,4.381,4.381,0,0,0,1.707-.86426,4.07261,4.07261,0,0,0,1.1084-1.51953,5.58958,5.58958,0,0,0,.40527-2.24023v-12.96a.79733.79733,0,0,1,.28125-.6084.96287.96287,0,0,1,.66895-.25586Z" transform="translate(-3.42259 -2.59393)" style="fill:#64ad45;stroke:#63ad45;stroke-miterlimit:10"/><path d="M425.19629,74.67383a.96287.96287,0,0,1,.66895.25586.79836.79836,0,0,1,.28223.6084v2.27148a.79688.79688,0,0,1-.28223.6084.95847.95847,0,0,1-.66895.25586h-6.33594V96.21a.79586.79586,0,0,1-.28125.6084.96185.96185,0,0,1-.66895.25586h-2.85156a.95779.95779,0,0,1-.668-.25586.79363.79363,0,0,1-.28223-.6084V78.67383h-6.33594a.95847.95847,0,0,1-.66895-.25586.79586.79586,0,0,1-.28125-.6084V75.53809a.79733.79733,0,0,1,.28125-.6084.96287.96287,0,0,1,.66895-.25586Z" transform="translate(-3.42259 -2.59393)" style="fill:#64ad45;stroke:#63ad45;stroke-miterlimit:10"/><path d="M434.73633,97.07422a.95847.95847,0,0,1-.66895-.25586.79363.79363,0,0,1-.28223-.6084V75.53809a.7951.7951,0,0,1,.28223-.6084.96287.96287,0,0,1,.66895-.25586h2.85059a.96458.96458,0,0,1,.66895.25586.79836.79836,0,0,1,.28223.6084V96.21a.79688.79688,0,0,1-.28223.6084.96016.96016,0,0,1-.66895.25586Z" transform="translate(-3.42259 -2.59393)" style="fill:#64ad45;stroke:#63ad45;stroke-miterlimit:10"/><path d="M447.30078,83.02637a10.43922,10.43922,0,0,1,.75684-3.376,7.66278,7.66278,0,0,1,1.91895-2.752,9.24544,9.24544,0,0,1,3.168-1.85645,13.23947,13.23947,0,0,1,4.50586-.68848,13.41076,13.41076,0,0,1,4.46973.67285,8.91529,8.91529,0,0,1,3.168,1.85547,8.07622,8.07622,0,0,1,1.93652,2.752,10.07831,10.07831,0,0,1,.77441,3.39258q.03369.60791.05273,1.34375.01758.73682.01758,1.52051t-.01758,1.51953q-.019.73682-.05273,1.34375a10.43346,10.43346,0,0,1-.75684,3.376,7.66278,7.66278,0,0,1-1.91895,2.752,9.02974,9.02974,0,0,1-3.18555,1.84082,15.38276,15.38276,0,0,1-8.99316,0,9.05224,9.05224,0,0,1-3.168-1.84082,7.66278,7.66278,0,0,1-1.91895-2.752,10.43346,10.43346,0,0,1-.75684-3.376q-.03516-.60645-.05273-1.34375-.01758-.73535-.01758-1.51953,0-.78369.01758-1.52051Q447.26562,83.63477,447.30078,83.02637Zm15.94629.16016a4.82938,4.82938,0,0,0-1.63672-3.56836,6.83219,6.83219,0,0,0-7.91992,0,4.82314,4.82314,0,0,0-1.6377,3.56836q-.07031,1.21582-.07031,2.7041,0,1.48682.07031,2.70313a4.76989,4.76989,0,0,0,1.6377,3.55273,6.90636,6.90636,0,0,0,7.91992,0,4.776,4.776,0,0,0,1.63672-3.55273q.07031-1.21436.07031-2.70312Q463.31738,84.40234,463.24707,83.18652Z" transform="translate(-3.42259 -2.59393)" style="fill:#64ad45;stroke:#63ad45;stroke-miterlimit:10"/><path d="M492.74512,97.07422a1.31182,1.31182,0,0,1-.915-.28809,6.07009,6.07009,0,0,1-.458-.44824L481.5166,83.02637V96.21a.79688.79688,0,0,1-.28223.6084.96016.96016,0,0,1-.66895.25586h-2.85059a.95847.95847,0,0,1-.66895-.25586.79363.79363,0,0,1-.28223-.6084V75.53809a.7951.7951,0,0,1,.28223-.6084.96287.96287,0,0,1,.66895-.25586h2.46387a1.31348,1.31348,0,0,1,.915.28809q.31641.28857.458.44824l9.85547,13.3125V75.53809a.79733.79733,0,0,1,.28125-.6084.96629.96629,0,0,1,.66895-.25586H495.209a.96629.96629,0,0,1,.66895.25586.79733.79733,0,0,1,.28125.6084V96.21a.79586.79586,0,0,1-.28125.6084.96185.96185,0,0,1-.66895.25586Z" transform="translate(-3.42259 -2.59393)" style="fill:#64ad45;stroke:#63ad45;stroke-miterlimit:10"/><path d="M514.21582,74.35352a13.62046,13.62046,0,0,1,4.1543.57617,10.66343,10.66343,0,0,1,2.99121,1.44043,6.43834,6.43834,0,0,1,1.81348,1.9043,4.597,4.597,0,0,1,.68652,1.96777.67955.67955,0,0,1-.26465.624,1.0661,1.0661,0,0,1-.68652.24023h-2.46387a1.57625,1.57625,0,0,1-.89746-.208,2.21629,2.21629,0,0,1-.5459-.56055,4.41365,4.41365,0,0,0-1.60156-1.3916,6.767,6.767,0,0,0-3.18555-.59277,8.35674,8.35674,0,0,0-1.74219.17676,5.31025,5.31025,0,0,0-1.44336.51172,2.87441,2.87441,0,0,0-.96777.81641,1.78708,1.78708,0,0,0-.35156,1.08789,1.99916,1.99916,0,0,0,.334,1.2002,2.59669,2.59669,0,0,0,1.126.7998,12.41741,12.41741,0,0,0,2.09473.624q1.30225.28857,3.23828.67188a24.67816,24.67816,0,0,1,3.64355.97559,8.72154,8.72154,0,0,1,2.499,1.34473,5.0688,5.0688,0,0,1,1.44336,1.80762,5.49668,5.49668,0,0,1,.47461,2.33594,5.29644,5.29644,0,0,1-.70312,2.67188,6.3551,6.3551,0,0,1-2.00684,2.1123,10.601,10.601,0,0,1-3.20312,1.3916,16.36671,16.36671,0,0,1-4.25977.5127,16.0317,16.0317,0,0,1-3.76562-.43262,11.63053,11.63053,0,0,1-3.18555-1.248,7.28166,7.28166,0,0,1-2.23535-1.96777,4.85959,4.85959,0,0,1-.9502-2.55957.67235.67235,0,0,1,.26367-.624,1.06421,1.06421,0,0,1,.68652-.24023h2.46387a1.773,1.773,0,0,1,.915.19238,1.493,1.493,0,0,1,.52832.5752,5.941,5.941,0,0,0,.59863.832,3.15867,3.15867,0,0,0,.9502.73633,6.0895,6.0895,0,0,0,1.49609.52832,10.09607,10.09607,0,0,0,2.23438.208,14.01975,14.01975,0,0,0,2.042-.14453,6.392,6.392,0,0,0,1.72461-.47949,3.673,3.673,0,0,0,1.19727-.832,1.75011,1.75011,0,0,0,.457-1.23242,1.487,1.487,0,0,0-.49219-1.15137,4.07278,4.07278,0,0,0-1.49609-.76855,22.67929,22.67929,0,0,0-2.48145-.6084q-1.47949-.28711-3.415-.73535a19.62448,19.62448,0,0,1-3.08008-.91211,7.36046,7.36046,0,0,1-2.18164-1.2959,4.81531,4.81531,0,0,1-1.28516-1.80859,6.57833,6.57833,0,0,1-.42285-2.47949,5.20482,5.20482,0,0,1,.7041-2.65625A6.52128,6.52128,0,0,1,507.59863,76.21a9.87879,9.87879,0,0,1,2.93945-1.36035A13.14487,13.14487,0,0,1,514.21582,74.35352Z" transform="translate(-3.42259 -2.59393)" style="fill:#64ad45;stroke:#63ad45;stroke-miterlimit:10"/><path d="M226.02588,36.813l3.76318-18.92822a1.72918,1.72918,0,0,1,.70557-1.17578,2.04956,2.04956,0,0,1,1.11719-.33643h7.70264a1.27711,1.27711,0,0,1,.91162.36426,1.15981,1.15981,0,0,1,.38232.86816,2.35251,2.35251,0,0,1-.05908.44775l-7.585,35.39209a2.37152,2.37152,0,0,1-.94092,1.45605,3.06175,3.06175,0,0,1-1.999.67188H225.144a2.72145,2.72145,0,0,1-1.91113-.67187,3.77811,3.77811,0,0,1-1.0293-1.45605l-4.40967-12.65625-4.41016,12.65625a3.79752,3.79752,0,0,1-1.02881,1.45605,2.72475,2.72475,0,0,1-1.91113.67188h-4.88037a3.06032,3.06032,0,0,1-1.99951-.67187,2.36214,2.36214,0,0,1-.94043-1.45605l-7.58545-35.39209a2.26826,2.26826,0,0,1-.05859-.44775,1.15458,1.15458,0,0,1,.38232-.86816,1.27516,1.27516,0,0,1,.91113-.36426h7.70264a2.05076,2.05076,0,0,1,1.11719.33643,1.7296,1.7296,0,0,1,.70605,1.17578L209.562,36.813l3.46924-10.13623a4.06675,4.06675,0,0,1,.52881-1.00781,1.63771,1.63771,0,0,1,1.47021-.61621h5.52734a1.63733,1.63733,0,0,1,1.46973.61621,4.14037,4.14037,0,0,1,.5293,1.00781Z" transform="translate(-3.42259 -2.59393)" style="fill:#909090"/><path d="M276.71045,46.61279a1.56658,1.56658,0,0,1,1.11719.44775,1.42633,1.42633,0,0,1,.4707,1.064v5.936a1.42251,1.42251,0,0,1-.4707,1.064,1.563,1.563,0,0,1-1.11719.44824H248.83936a1.56134,1.56134,0,0,1-1.11719-.44824,1.415,1.415,0,0,1-.47021-1.064V17.88477a1.41882,1.41882,0,0,1,.47021-1.064,1.56541,1.56541,0,0,1,1.11719-.44824h27.40039a1.567,1.567,0,0,1,1.11719.44824,1.41932,1.41932,0,0,1,.4707,1.064v5.936a1.41629,1.41629,0,0,1-.4707,1.064,1.56251,1.56251,0,0,1-1.11719.44775H258.12988v6.04834h16.81689a1.56987,1.56987,0,0,1,1.11719.44775,1.42633,1.42633,0,0,1,.4707,1.064v5.936a1.42251,1.42251,0,0,1-.4707,1.064,1.56623,1.56623,0,0,1-1.11719.44824H258.12988v6.272Z" transform="translate(-3.42259 -2.59393)" style="fill:#909090"/><path d="M298.4082,55.57275a3.0858,3.0858,0,0,1-3.11719-2.24023l-11.99512-35c-.0791-.26074-.127-.42871-.14648-.50391a.83254.83254,0,0,1-.0293-.22363,1.15409,1.15409,0,0,1,.38184-.86816,1.276,1.276,0,0,1,.91113-.36426h7.40918a2.39961,2.39961,0,0,1,1.67578.47607,2.07911,2.07911,0,0,1,.61719.92432l8.17285,24.63965,8.17383-24.63965a2.06263,2.06263,0,0,1,.61719-.92432,2.39629,2.39629,0,0,1,1.67578-.47607h7.40918a1.27761,1.27761,0,0,1,.91113.36426,1.15757,1.15757,0,0,1,.38184.86816.87353.87353,0,0,1-.0293.22363q-.0293.11279-.14648.50391l-11.99512,35a3.08656,3.08656,0,0,1-3.11719,2.24023Z" transform="translate(-3.42259 -2.59393)" style="fill:#909090"/><path d="M345.27148,16.37256a28.02189,28.02189,0,0,1,6.93848.78418,15.09777,15.09777,0,0,1,5.20313,2.35205,10.32285,10.32285,0,0,1,3.293,4.00391,13.21659,13.21659,0,0,1,1.14648,5.68408,12.45063,12.45063,0,0,1-1.82227,6.97217,11.487,11.487,0,0,1-5.1748,4.228l7.291,13.32764a1.33819,1.33819,0,0,1,.17676.61621,1.16108,1.16108,0,0,1-.38184.86816,1.27575,1.27575,0,0,1-.91211.36377H353.0332a2.2984,2.2984,0,0,1-1.67578-.50391,5.03318,5.03318,0,0,1-.79395-1.0083l-6.52734-11.98389H338.627V54.06055a1.419,1.419,0,0,1-.4707,1.064,1.56459,1.56459,0,0,1-1.11719.44824h-7.70312a1.56134,1.56134,0,0,1-1.11719-.44824,1.418,1.418,0,0,1-.46973-1.064V17.88477a1.42182,1.42182,0,0,1,.46973-1.064,1.56541,1.56541,0,0,1,1.11719-.44824ZM338.627,33.34082h6.64453a8.3523,8.3523,0,0,0,4.08594-.896,3.38406,3.38406,0,0,0,1.61719-3.248,3.385,3.385,0,0,0-1.61719-3.248,8.3632,8.3632,0,0,0-4.08594-.896H338.627Z" transform="translate(-3.42259 -2.59393)" style="fill:#909090"/><path d="M398.30762,46.61279a1.565,1.565,0,0,1,1.11719.44775,1.42282,1.42282,0,0,1,.4707,1.064v5.936a1.419,1.419,0,0,1-.4707,1.064,1.56134,1.56134,0,0,1-1.11719.44824H371.083a1.56134,1.56134,0,0,1-1.11719-.44824,1.418,1.418,0,0,1-.46973-1.064V17.88477a1.42182,1.42182,0,0,1,.46973-1.064,1.56541,1.56541,0,0,1,1.11719-.44824h7.70313a1.56868,1.56868,0,0,1,1.11719.44824,1.42282,1.42282,0,0,1,.4707,1.064v28.728Z" transform="translate(-3.42259 -2.59393)" style="fill:#909090"/><path d="M427.59082,16.37256a2.434,2.434,0,0,1,1.793.61621,3.58606,3.58606,0,0,1,.85254,1.23193L443.05469,53.501a2.46353,2.46353,0,0,1,.23535.83984,1.15757,1.15757,0,0,1-.38184.86816,1.27511,1.27511,0,0,1-.91113.36377h-7.40918a2.38909,2.38909,0,0,1-1.67578-.47607,2.05131,2.05131,0,0,1-.61719-.92383l-1.64648-4.64795H415.00781l-1.64648,4.64795a2.06759,2.06759,0,0,1-.61719.92383,2.39238,2.39238,0,0,1-1.67578.47607h-7.40918a1.27186,1.27186,0,0,1-.91113-.36377,1.15507,1.15507,0,0,1-.38281-.86816,2.44074,2.44074,0,0,1,.23535-.83984L415.41895,18.2207a3.59967,3.59967,0,0,1,.85254-1.23193,2.43486,2.43486,0,0,1,1.79395-.61621Zm-9.52539,24.47217h9.52539l-4.7627-13.43994Z" transform="translate(-3.42259 -2.59393)" style="fill:#909090"/><path d="M450.52148,55.57275a1.56134,1.56134,0,0,1-1.11719-.44824,1.418,1.418,0,0,1-.46973-1.064V17.88477a1.42182,1.42182,0,0,1,.46973-1.064,1.56541,1.56541,0,0,1,1.11719-.44824h18.93359a18.67054,18.67054,0,0,1,6.64453,1.03613,11.93293,11.93293,0,0,1,4.32227,2.688,9.76126,9.76126,0,0,1,2.32227,3.752,13.03269,13.03269,0,0,1,.70605,4.17236,9.3672,9.3672,0,0,1-.38281,2.82764,9.50532,9.50532,0,0,1-.91113,2.07227,6.83257,6.83257,0,0,1-1.08789,1.3999c-.373.355-.67578.62549-.91113.812a8.53964,8.53964,0,0,1,3.2041,3.5,11.43175,11.43175,0,0,1,.91211,4.78809,14.473,14.473,0,0,1-.70605,4.48,10.14675,10.14675,0,0,1-2.32227,3.89209,11.645,11.645,0,0,1-4.2041,2.74365,17.12553,17.12553,0,0,1-6.35059,1.03613ZM472.5127,28.24463a3.05985,3.05985,0,0,0-.91113-2.32373,3.73823,3.73823,0,0,0-2.6748-.86816H459.8125v6.38379h9.11426a3.73592,3.73592,0,0,0,2.6748-.86768A3.05875,3.05875,0,0,0,472.5127,28.24463ZM459.8125,46.89258h9.70215a3.98814,3.98814,0,0,0,2.82227-.98,3.3322,3.3322,0,0,0,0-4.87207,3.99474,3.99474,0,0,0-2.82227-.98H459.8125Z" transform="translate(-3.42259 -2.59393)" style="fill:#909090"/><path d="M506.96973,15.813a21.9962,21.9962,0,0,1,6.90918,1.03564,20.41879,20.41879,0,0,1,5.43848,2.66016,13.708,13.708,0,0,1,3.58691,3.584,7.32138,7.32138,0,0,1,1.35254,3.752,1.15855,1.15855,0,0,1-.38281.86816,1.20613,1.20613,0,0,1-.85254.36377h-7.70215a3.262,3.262,0,0,1-1.32324-.22412,4.36,4.36,0,0,1-1.0293-.67187q-.17578-.16772-.55859-.56006a5.38036,5.38036,0,0,0-1.08789-.812,7.65183,7.65183,0,0,0-1.76367-.728,9.4054,9.4054,0,0,0-2.58691-.30762,16.004,16.004,0,0,0-2.14648.13965A8.07483,8.07483,0,0,0,503,25.36084a3.30128,3.30128,0,0,0-1.293.86768,2.02339,2.02339,0,0,0-.5,1.40039,1.89868,1.89868,0,0,0,.55859,1.3999,5.15223,5.15223,0,0,0,1.88184,1.03613,26.37167,26.37167,0,0,0,3.498.92383q2.17529.449,5.41016,1.064a31.58836,31.58836,0,0,1,5.64453,1.56787,13.54128,13.54128,0,0,1,4.02734,2.38037,8.99886,8.99886,0,0,1,2.41113,3.35986,11.966,11.966,0,0,1,.79395,4.564,9.66745,9.66745,0,0,1-1.35254,5.09619,12.02319,12.02319,0,0,1-3.792,3.83594,18.94554,18.94554,0,0,1-5.7627,2.436,29.61171,29.61171,0,0,1-7.26172.83984,24.81733,24.81733,0,0,1-7.291-1.0083,20.30967,20.30967,0,0,1-5.6748-2.65967,13.66483,13.66483,0,0,1-3.7334-3.72412,8.01366,8.01366,0,0,1-1.41113-4.2002,1.1573,1.1573,0,0,1,.38184-.86768,1.207,1.207,0,0,1,.85254-.36426h7.70313a3.45493,3.45493,0,0,1,1.293.19629,3.77138,3.77138,0,0,1,.94141.58789q.23438.22412.70508.728a7.252,7.252,0,0,0,1.26465,1.03613,8.05282,8.05282,0,0,0,1.999.92383,9.69185,9.69185,0,0,0,2.96973.39209,17.89546,17.89546,0,0,0,5.20312-.644q2.0874-.64307,2.08789-2.32422a1.681,1.681,0,0,0-.76465-1.3999,8.0471,8.0471,0,0,0-2.293-1.03613,36.17055,36.17055,0,0,0-3.91016-.92383q-2.38184-.44751-5.61523-1.12012-6.05713-1.2312-8.84961-4.11572a10.5954,10.5954,0,0,1-2.793-7.7002,9.74436,9.74436,0,0,1,1.14648-4.5918,11.8342,11.8342,0,0,1,3.32227-3.86426,16.8719,16.8719,0,0,1,5.2627-2.65967A22.78547,22.78547,0,0,1,506.96973,15.813Z" transform="translate(-3.42259 -2.59393)" style="fill:#909090"/><path d="M529.84375,17.605q0-1.2312,1.293-1.23242h11.29q1.292,0,1.29395,1.23242v2.35156q0,1.23267-1.29395,1.23242h-3.05762v8.84766q0,1.23267-1.29395,1.23193h-2.58691q-1.29346,0-1.29395-1.23193V21.189h-3.05762q-1.29346,0-1.293-1.23242Zm27.10645-.05615q.23438-.33618.58789-.75586a1.23292,1.23292,0,0,1,1-.42041H561.125q1.292,0,1.29395,1.23242V30.03662q0,1.23267-1.29395,1.23193h-2.58691q-1.29492,0-1.29395-1.23193v-5.208l-.94043,1.51221c-.19727.29932-.41211.59766-.64746.896a1.07726,1.07726,0,0,1-.88184.44775h-1.64648a1.07855,1.07855,0,0,1-.88184-.44775q-.353-.44751-.64648-.896l-.94141-1.51221v5.208q0,1.23267-1.293,1.23193h-2.58789q-1.29346,0-1.293-1.23193V17.605q0-1.2312,1.293-1.23242h2.58789a1.2309,1.2309,0,0,1,.999.42041q.353.41968.58789.75586l2.999,4.5918Z" transform="translate(-3.42259 -2.59393)" style="fill:#909090"/></svg>